<svg xmlns="http://www.w3.org/2000/svg" width="185" height="52" viewBox="0 0 185 52"><defs><style>.a{fill:#0070c0;}</style></defs><title>readtext_logo_small</title><path class="a" d="M11.8,22.07a7.14,7.14,0,0,1,1.72-4.2,6.62,6.62,0,0,1,3.73-2.1,10.53,10.53,0,0,1,2.2-.22q1.35,0,3,0h4.6l-.45,4.95H20.8a8.69,8.69,0,0,0-1.3.1,2.53,2.53,0,0,0-1.75.83A3,3,0,0,0,17,23.27L15.3,42.62H10Z"/><path class="a" d="M37,42.62c-1.17,0-2.22,0-3.15,0a6.93,6.93,0,0,1-2.4-.45,6.41,6.41,0,0,1-2.78-1.95,5.6,5.6,0,0,1-1.12-3.7c0-.57,0-1.08.05-1.55s.08-1,.15-1.55l1-11.3a7.14,7.14,0,0,1,1.72-4.2,6.62,6.62,0,0,1,3.73-2.1,10.37,10.37,0,0,1,2.17-.22c.89,0,1.88,0,3,0s2.22,0,3.17.05A7.11,7.11,0,0,1,45,16,6.38,6.38,0,0,1,47.72,18a5.6,5.6,0,0,1,1.13,3.7c0,.57,0,1.3-.13,2.2s-.17,1.78-.27,2.65a7.14,7.14,0,0,1-1.73,4.2A6.57,6.57,0,0,1,43,32.82a3.63,3.63,0,0,1-.78.13L41.15,33c-.44,0-1,0-1.6,0H33.1l-.1.85c0,.37-.06.71-.08,1s0,.55,0,.72a1.72,1.72,0,0,0,1.4,1.8,5.22,5.22,0,0,0,1.27.18l1.53,0h7.55l-.45,4.95Zm-3.5-14.5h6A9,9,0,0,0,40.8,28a2.51,2.51,0,0,0,1.75-.85,3.28,3.28,0,0,0,.75-1.9q.09-.7.15-1.32c0-.42,0-.8,0-1.13A2,2,0,0,0,42,20.67a4.77,4.77,0,0,0-1.25-.17c-.5,0-1.07,0-1.7,0H37.62a8,8,0,0,0-1.17.1,2.67,2.67,0,0,0-1.75.78A2.7,2.7,0,0,0,34,23.07Z"/><path class="a" d="M61.86,15.52c1.17,0,2.22,0,3.15.05a7,7,0,0,1,2.4.45A6.41,6.41,0,0,1,70.19,18a5.6,5.6,0,0,1,1.12,3.7c0,.57,0,1.08,0,1.55s-.08,1-.15,1.55l-1,11.3a7.2,7.2,0,0,1-1.72,4.2,6.62,6.62,0,0,1-3.73,2.1,11,11,0,0,1-2.17.23l-3,0c-1.16,0-2.22,0-3.17,0a7.11,7.11,0,0,1-2.43-.45,6.38,6.38,0,0,1-2.77-1.95A5.6,5.6,0,0,1,50,36.47c0-.9,0-1.74.1-2.52s.14-1.56.2-2.33a7.1,7.1,0,0,1,1.75-4.2,6.71,6.71,0,0,1,3.75-2.1,10.32,10.32,0,0,1,1.83-.2c.78,0,2.11-.05,4-.05h2.7a1.84,1.84,0,0,0,1-.32,1.53,1.53,0,0,0,.57-1.13c0-.23.06-.44.08-.62s0-.36,0-.53a1.73,1.73,0,0,0-1.4-1.8,4.82,4.82,0,0,0-1.27-.17l-1.53,0h-7.3L55,15.52ZM65.36,30h-6a9,9,0,0,0-1.33.1,2.53,2.53,0,0,0-1.75.85,3.28,3.28,0,0,0-.75,1.9,22.41,22.41,0,0,0-.15,2.45,2,2,0,0,0,1.5,2.15,5.12,5.12,0,0,0,1.25.18l1.7,0h1.43a8.11,8.11,0,0,0,1.17-.1,2.66,2.66,0,0,0,1.75-.77,2.73,2.73,0,0,0,.75-1.73Z"/><path class="a" d="M94.25,36.07a7.14,7.14,0,0,1-1.73,4.2,6.57,6.57,0,0,1-3.72,2.1,11.11,11.11,0,0,1-2.18.23l-3,0c-1.17,0-2.23,0-3.18,0a7,7,0,0,1-2.42-.45,6.41,6.41,0,0,1-2.78-1.95,5.6,5.6,0,0,1-1.12-3.7c0-.57,0-1.08,0-1.55s.08-1,.15-1.55l1-11.3A7.14,7.14,0,0,1,77,17.87a6.62,6.62,0,0,1,3.73-2.1,10.53,10.53,0,0,1,2.2-.22q1.35,0,3,0h4.8l.7-8h5.3ZM90,24.37c0-.3.06-.57.07-.8s0-.48,0-.75a2,2,0,0,0-1.5-2.15,4.14,4.14,0,0,0-1.08-.17c-.38,0-1,0-1.72,0H84.3a8.69,8.69,0,0,0-1.3.1,2.53,2.53,0,0,0-1.75.83,3,3,0,0,0-.75,1.87l-.9,10.6c0,.23-.06.48-.08.75s0,.5,0,.7A2,2,0,0,0,81,37.47a5.12,5.12,0,0,0,1.25.18l1.7,0h1.42a8.12,8.12,0,0,0,1.18-.1,2.7,2.7,0,0,0,1.75-.77,2.84,2.84,0,0,0,.75-1.73Z"/><path class="a" d="M100.91,9.67h5.3l-.5,5.85h7.2l-.45,4.9h-7.15l-1.2,13.45c0,.23-.06.49-.08.78s0,.52,0,.72a2,2,0,0,0,1.4,2.1,3.43,3.43,0,0,0,1,.13l1.65,0,1.7,0H111l-.45,4.95h-2c-.78,0-1.56,0-2.32,0s-1.48-.08-2.13-.15a6,6,0,0,1-1.47-.3,6.41,6.41,0,0,1-2.78-1.95,5.6,5.6,0,0,1-1.12-3.7c0-.57,0-1.08,0-1.55s.08-1,.15-1.55Z"/><path class="a" d="M123.33,42.62c-1.17,0-2.22,0-3.15,0a6.93,6.93,0,0,1-2.4-.45A6.41,6.41,0,0,1,115,40.17a5.6,5.6,0,0,1-1.12-3.7c0-.57,0-1.08.05-1.55s.08-1,.15-1.55l1-11.3a7.14,7.14,0,0,1,1.72-4.2,6.59,6.59,0,0,1,3.73-2.1,10.37,10.37,0,0,1,2.17-.22c.88,0,1.88,0,3,0s2.22,0,3.17.05a7.11,7.11,0,0,1,2.43.45A6.38,6.38,0,0,1,134.05,18a5.6,5.6,0,0,1,1.13,3.7c0,.57-.05,1.3-.13,2.2s-.17,1.78-.27,2.65a7.21,7.21,0,0,1-1.73,4.2,6.57,6.57,0,0,1-3.72,2.1,3.74,3.74,0,0,1-.78.13l-1.07.07c-.44,0-1,0-1.6,0h-6.45l-.1.85c0,.37-.06.71-.08,1s0,.55,0,.72a1.72,1.72,0,0,0,1.4,1.8,5.15,5.15,0,0,0,1.27.18l1.53,0H131l-.45,4.95Zm-3.5-14.5h6a9,9,0,0,0,1.33-.1,2.51,2.51,0,0,0,1.75-.85,3.28,3.28,0,0,0,.75-1.9q.09-.7.15-1.32c0-.42.05-.8.05-1.13a2,2,0,0,0-1.5-2.15,4.77,4.77,0,0,0-1.25-.17c-.5,0-1.07,0-1.7,0H124a7.89,7.89,0,0,0-1.17.1,2.67,2.67,0,0,0-1.75.78,2.7,2.7,0,0,0-.75,1.72Z"/><path class="a" d="M137.47,15.52h5.3l2.3,9.05a3.35,3.35,0,0,0,.58,1.23,1.42,1.42,0,0,0,1.17.47,1.4,1.4,0,0,0,1.15-.5,4.29,4.29,0,0,0,.65-1.15l3.65-9.1h5.45l-4.35,10A6.87,6.87,0,0,1,152,27.6a4.12,4.12,0,0,1-2.15,1.17,3.54,3.54,0,0,1,2,1.2,6.74,6.74,0,0,1,1.12,2.15l3.15,10.5h-5.6L148,33.37a4.4,4.4,0,0,0-.6-1.3,1.4,1.4,0,0,0-1.25-.6,1.8,1.8,0,0,0-1.37.5,4.89,4.89,0,0,0-.88,1.4l-4,9.25h-5.5l4.95-10.9a5.83,5.83,0,0,1,1.45-1.92,4.61,4.61,0,0,1,2.1-1,2.93,2.93,0,0,1-1.8-1.32,7.81,7.81,0,0,1-.95-2.18Z"/><path class="a" d="M161.23,9.67h5.3l-.5,5.85h7.2l-.45,4.9h-7.15l-1.2,13.45c0,.23-.06.49-.08.78s0,.52,0,.72a2,2,0,0,0,1.4,2.1,3.49,3.49,0,0,0,1,.13l1.65,0,1.7,0h1.2l-.45,4.95h-2c-.79,0-1.56,0-2.33,0s-1.48-.08-2.13-.15a6.1,6.1,0,0,1-1.47-.3,6.41,6.41,0,0,1-2.78-1.95,5.6,5.6,0,0,1-1.12-3.7c0-.57,0-1.08.05-1.55s.08-1,.15-1.55Z"/></svg>