<svg xmlns="http://www.w3.org/2000/svg" width="138" height="38" viewBox="0 0 138 38"><defs><style>.a{fill:#0070c0;}</style></defs><title>readtext_logo_small</title><path class="a" d="M6.11,13.74a5.61,5.61,0,0,1,1.36-3.32,5.25,5.25,0,0,1,3-1.67,8.79,8.79,0,0,1,1.74-.17c.71,0,1.5,0,2.37,0h3.64l-.36,3.91H13.23a7.73,7.73,0,0,0-1,.08,2.05,2.05,0,0,0-1.39.65,2.5,2.5,0,0,0-.59,1.49L8.88,30H4.68Z"/><path class="a" d="M26.14,30c-.92,0-1.75,0-2.49,0a5.79,5.79,0,0,1-1.9-.36,5,5,0,0,1-2.19-1.54,4.4,4.4,0,0,1-.89-2.93c0-.44,0-.85,0-1.22s.06-.78.11-1.23l.79-8.93A5.69,5.69,0,0,1,21,10.42a5.25,5.25,0,0,1,2.94-1.67,8.73,8.73,0,0,1,1.72-.17c.7,0,1.49,0,2.36,0s1.76,0,2.51,0A5.52,5.52,0,0,1,32.42,9a5,5,0,0,1,2.2,1.55,4.43,4.43,0,0,1,.89,2.92c0,.45,0,1-.1,1.74s-.14,1.41-.22,2.1a5.64,5.64,0,0,1-1.36,3.32,5.23,5.23,0,0,1-2.95,1.66,3.53,3.53,0,0,1-.61.1l-.85.06c-.34,0-.76,0-1.27,0h-5.1l-.07.67q0,.43-.06.81c0,.25,0,.44,0,.57A1.38,1.38,0,0,0,24,25.92a4.44,4.44,0,0,0,1,.13c.41,0,.81,0,1.21,0h6L31.83,30ZM23.37,18.52H28.1a6.48,6.48,0,0,0,1-.08,2,2,0,0,0,1.39-.67,2.56,2.56,0,0,0,.59-1.5q.07-.55.12-1c0-.33,0-.63,0-.89a1.59,1.59,0,0,0-1.19-1.7,3.73,3.73,0,0,0-1-.14l-1.34,0H26.63a7.28,7.28,0,0,0-.93.08,2.11,2.11,0,0,0-1.38.61,2.21,2.21,0,0,0-.59,1.37Z"/><path class="a" d="M45.91,8.56c.92,0,1.75,0,2.49,0A5.55,5.55,0,0,1,50.3,9a5,5,0,0,1,2.19,1.55,4.37,4.37,0,0,1,.89,2.92c0,.45,0,.86,0,1.23s-.06.77-.11,1.22l-.79,8.94a5.71,5.71,0,0,1-1.37,3.32,5.24,5.24,0,0,1-2.94,1.66,8.64,8.64,0,0,1-1.72.18l-2.36,0c-.92,0-1.76,0-2.51,0a5.86,5.86,0,0,1-1.92-.36,5,5,0,0,1-2.19-1.54,4.46,4.46,0,0,1-.89-2.93c0-.71,0-1.37.08-2s.1-1.23.16-1.84A5.57,5.57,0,0,1,38.16,18a5.26,5.26,0,0,1,3-1.66,8.52,8.52,0,0,1,1.44-.16c.62,0,1.67,0,3.14,0h2.14a1.42,1.42,0,0,0,.81-.26,1.18,1.18,0,0,0,.45-.89c0-.18,0-.35.06-.49a3,3,0,0,0,0-.42,1.37,1.37,0,0,0-1.1-1.42,3.9,3.9,0,0,0-1-.14l-1.21,0H40.1l.35-3.91ZM48.68,20H43.91a7.75,7.75,0,0,0-1,.08,2.07,2.07,0,0,0-1.39.67,2.59,2.59,0,0,0-.59,1.51,17.33,17.33,0,0,0-.12,1.93A1.6,1.6,0,0,0,42,25.92a4.25,4.25,0,0,0,1,.13c.39,0,.84,0,1.34,0h1.13a5.82,5.82,0,0,0,.93-.08,2.06,2.06,0,0,0,1.38-.61A2.18,2.18,0,0,0,48.32,24Z"/><path class="a" d="M71.63,24.81a5.71,5.71,0,0,1-1.36,3.32,5.23,5.23,0,0,1-3,1.66A8.56,8.56,0,0,1,65.6,30l-2.35,0c-.92,0-1.76,0-2.51,0a5.86,5.86,0,0,1-1.92-.36,5,5,0,0,1-2.19-1.54,4.4,4.4,0,0,1-.89-2.93c0-.44,0-.85,0-1.22s.06-.78.11-1.23l.76-8.93A5.61,5.61,0,0,1,58,10.42a5.25,5.25,0,0,1,3-1.67,8.6,8.6,0,0,1,1.73-.17c.72,0,1.51,0,2.38,0h3.79l.56-6.33h4.19Zm-3.4-9.25c0-.24,0-.45.06-.64s0-.38,0-.59a1.59,1.59,0,0,0-1.19-1.7,3.22,3.22,0,0,0-.85-.14l-1.36,0H63.76a7.86,7.86,0,0,0-1,.08,2,2,0,0,0-1.38.65,2.5,2.5,0,0,0-.59,1.49l-.71,8.38a5.11,5.11,0,0,0-.06.59c0,.21,0,.4,0,.55a1.59,1.59,0,0,0,1.18,1.71,4.41,4.41,0,0,0,1,.13c.4,0,.84,0,1.35,0h1.12a5.82,5.82,0,0,0,.93-.08,2.11,2.11,0,0,0,1.39-.61A2.18,2.18,0,0,0,67.52,24Z"/><path class="a" d="M77,3.93H81.2l-.4,4.63h5.7l-.36,3.87H80.49l-.95,10.64a5.25,5.25,0,0,0-.06.61c0,.23,0,.42,0,.57a1.57,1.57,0,0,0,1.11,1.67,2.83,2.83,0,0,0,.79.09l1.3,0c.48,0,.92,0,1.35,0H85L84.6,30H83c-.62,0-1.23,0-1.84,0s-1.17-.07-1.68-.12a4.29,4.29,0,0,1-1.17-.24,5,5,0,0,1-2.19-1.54,4.4,4.4,0,0,1-.89-2.93c0-.44,0-.85,0-1.22s.06-.78.12-1.23Z"/><path class="a" d="M94.84,30c-.92,0-1.75,0-2.49,0a5.79,5.79,0,0,1-1.9-.36,5,5,0,0,1-2.19-1.54,4.46,4.46,0,0,1-.89-2.93c0-.44,0-.85,0-1.22s.06-.78.12-1.23l.79-8.93a5.61,5.61,0,0,1,1.36-3.32,5.25,5.25,0,0,1,2.95-1.67,8.65,8.65,0,0,1,1.72-.17c.7,0,1.48,0,2.35,0s1.76,0,2.51,0a5.62,5.62,0,0,1,1.92.35,5,5,0,0,1,2.19,1.55,4.37,4.37,0,0,1,.89,2.92c0,.45,0,1-.1,1.74s-.13,1.41-.21,2.1a5.71,5.71,0,0,1-1.37,3.32,5.24,5.24,0,0,1-2.94,1.66,3.65,3.65,0,0,1-.62.1l-.85.06c-.34,0-.76,0-1.26,0h-5.1l-.08.67q0,.43-.06.81c0,.25,0,.44,0,.57a1.38,1.38,0,0,0,1.11,1.43,4.36,4.36,0,0,0,1,.13c.4,0,.81,0,1.2,0h6L100.54,30ZM92.07,18.52H96.8a6.51,6.51,0,0,0,1-.08,2,2,0,0,0,1.38-.67,2.56,2.56,0,0,0,.59-1.5q.09-.55.12-1c0-.33,0-.63,0-.89a1.58,1.58,0,0,0-1.18-1.7,3.86,3.86,0,0,0-1-.14l-1.35,0H95.34a7.28,7.28,0,0,0-.93.08,2.16,2.16,0,0,0-1.39.61,2.21,2.21,0,0,0-.59,1.37Z"/><path class="a" d="M106.15,8.56h4.19l1.82,7.15a2.5,2.5,0,0,0,.45,1,1.12,1.12,0,0,0,.93.38,1.08,1.08,0,0,0,.91-.4,3.21,3.21,0,0,0,.51-.91l2.89-7.19h4.31l-3.44,7.9a5.33,5.33,0,0,1-1.11,1.65,3.29,3.29,0,0,1-1.7.93,2.72,2.72,0,0,1,1.56.94,5.19,5.19,0,0,1,.89,1.7L120.85,30h-4.42l-1.94-7.32a3.59,3.59,0,0,0-.48-1,1.11,1.11,0,0,0-1-.47,1.41,1.41,0,0,0-1.09.4,3.86,3.86,0,0,0-.69,1.1L108,30h-4.35l3.92-8.62a4.4,4.4,0,0,1,1.15-1.52,3.55,3.55,0,0,1,1.66-.81A2.37,2.37,0,0,1,109,18a6.25,6.25,0,0,1-.75-1.72Z"/><path class="a" d="M125,3.93h4.19l-.39,4.63h5.69l-.36,3.87h-5.65l-1,10.64c0,.18,0,.39-.06.61s0,.42,0,.57a1.57,1.57,0,0,0,1.11,1.67,2.89,2.89,0,0,0,.79.09l1.31,0c.47,0,.92,0,1.34,0h1L132.63,30H131c-.62,0-1.23,0-1.84,0s-1.16-.07-1.68-.12a4.2,4.2,0,0,1-1.16-.24,5,5,0,0,1-2.2-1.54,4.46,4.46,0,0,1-.89-2.93c0-.44,0-.85,0-1.22s.07-.78.12-1.23Z"/></svg>